<svg width="25" height="25" viewBox="0 0 25 25" fill="none" xmlns="http://www.w3.org/2000/svg">
<path fill-rule="evenodd" clip-rule="evenodd" d="M0.333374 12.7334C0.333374 9.5508 1.59766 6.49855 3.84809 4.24812C6.09853 1.99768 9.15078 0.733398 12.3334 0.733398C15.516 0.733398 18.5682 1.99768 20.8187 4.24812C23.0691 6.49855 24.3334 9.5508 24.3334 12.7334C24.3334 15.916 23.0691 18.9682 20.8187 21.2187C18.5682 23.4691 15.516 24.7334 12.3334 24.7334C9.15078 24.7334 6.09853 23.4691 3.84809 21.2187C1.59766 18.9682 0.333374 15.916 0.333374 12.7334ZM11.6486 17.8694L18.5574 9.2326L17.3094 8.2342L11.4182 15.5958L7.24537 12.119L6.22137 13.3478L11.6486 17.8694Z" fill="#E3B6B1"/>
</svg>
