<svg width="122" height="26" viewBox="0 0 122 26" fill="none" xmlns="http://www.w3.org/2000/svg">
<path d="M9.99935 16.3334C10.8834 16.3334 11.7313 15.9822 12.3564 15.3571C12.9815 14.732 13.3327 13.8841 13.3327 13.0001C13.3327 12.116 12.9815 11.2682 12.3564 10.6431C11.7313 10.0179 10.8834 9.66675 9.99935 9.66675C9.11529 9.66675 8.26745 10.0179 7.64233 10.6431C7.0172 11.2682 6.66602 12.116 6.66602 13.0001C6.66602 13.8841 7.0172 14.732 7.64233 15.3571C8.26745 15.9822 9.11529 16.3334 9.99935 16.3334Z" stroke="#F8F6F4" stroke-width="1.5" stroke-linecap="round" stroke-linejoin="round"/>
<path d="M2.5 16.3333V9.66667C2.5 8.5616 2.93899 7.50179 3.72039 6.72039C4.50179 5.93899 5.5616 5.5 6.66667 5.5H13.3333C14.4384 5.5 15.4982 5.93899 16.2796 6.72039C17.061 7.50179 17.5 8.5616 17.5 9.66667V16.3333C17.5 17.4384 17.061 18.4982 16.2796 19.2796C15.4982 20.061 14.4384 20.5 13.3333 20.5H6.66667C5.5616 20.5 4.50179 20.061 3.72039 19.2796C2.93899 18.4982 2.5 17.4384 2.5 16.3333Z" stroke="#F8F6F4" stroke-width="1.5"/>
<path d="M14.584 8.42421L14.5923 8.41504" stroke="#F8F6F4" stroke-width="1.5" stroke-linecap="round" stroke-linejoin="round"/>
<path d="M32.6908 16.912C32.3281 17.3493 31.9174 17.6747 31.4588 17.888C31.0001 18.0907 30.5041 18.192 29.9708 18.192C29.4054 18.192 28.8828 18.096 28.4028 17.904C27.9228 17.712 27.5121 17.4453 27.1708 17.104C26.8294 16.752 26.5628 16.3413 26.3708 15.872C26.1788 15.392 26.0828 14.8693 26.0828 14.304C26.0828 13.7387 26.1788 13.2213 26.3708 12.752C26.5628 12.272 26.8294 11.8613 27.1708 11.52C27.5121 11.168 27.9228 10.896 28.4028 10.704C28.8828 10.512 29.4054 10.416 29.9708 10.416C30.5148 10.416 31.0161 10.528 31.4748 10.752C31.9441 10.976 32.3601 11.2907 32.7228 11.696L31.9548 12.272C31.6774 11.9627 31.3734 11.7227 31.0428 11.552C30.7121 11.3707 30.3548 11.28 29.9708 11.28C29.5228 11.28 29.1174 11.36 28.7548 11.52C28.3921 11.68 28.0828 11.8987 27.8268 12.176C27.5708 12.4427 27.3734 12.7627 27.2348 13.136C27.1068 13.4987 27.0428 13.888 27.0428 14.304C27.0428 14.72 27.1068 15.1147 27.2348 15.488C27.3734 15.8507 27.5708 16.1707 27.8268 16.448C28.0828 16.7147 28.3921 16.928 28.7548 17.088C29.1174 17.248 29.5228 17.328 29.9708 17.328C30.3761 17.328 30.7441 17.2373 31.0748 17.056C31.4161 16.864 31.7094 16.6133 31.9548 16.304L32.6908 16.912ZM39.9459 14.896C39.9459 15.2587 39.9459 15.584 39.9459 15.872C39.9565 16.16 39.9672 16.4267 39.9779 16.672C39.9885 16.9173 39.9992 17.1467 40.0099 17.36C40.0312 17.5733 40.0579 17.7867 40.0899 18H39.1939C39.1299 17.6373 39.0979 17.2373 39.0979 16.8H39.0659C38.7885 17.28 38.4419 17.632 38.0259 17.856C37.6205 18.08 37.1032 18.192 36.4739 18.192C36.1539 18.192 35.8392 18.1493 35.5299 18.064C35.2205 17.9893 34.9432 17.8667 34.6979 17.696C34.4525 17.5147 34.2499 17.2853 34.0899 17.008C33.9405 16.7307 33.8659 16.3947 33.8659 16C33.8659 15.4347 34.0099 14.9867 34.2979 14.656C34.5859 14.3253 34.9379 14.08 35.3539 13.92C35.7805 13.7493 36.2285 13.6427 36.6979 13.6C37.1779 13.5467 37.5992 13.52 37.9619 13.52H39.0819V13.072C39.0819 12.432 38.8845 11.9733 38.4899 11.696C38.0952 11.4187 37.5992 11.28 37.0019 11.28C36.1485 11.28 35.3965 11.5573 34.7459 12.112L34.1859 11.456C34.5379 11.1147 34.9752 10.8587 35.4979 10.688C36.0205 10.5067 36.5219 10.416 37.0019 10.416C37.8979 10.416 38.6125 10.6293 39.1459 11.056C39.6792 11.472 39.9459 12.1493 39.9459 13.088V14.896ZM38.0259 14.288C37.6205 14.288 37.2259 14.3147 36.8419 14.368C36.4685 14.4213 36.1272 14.512 35.8179 14.64C35.5192 14.768 35.2792 14.9387 35.0979 15.152C34.9165 15.3653 34.8259 15.632 34.8259 15.952C34.8259 16.176 34.8739 16.3787 34.9699 16.56C35.0765 16.7307 35.2099 16.8747 35.3699 16.992C35.5299 17.0987 35.7059 17.184 35.8979 17.248C36.1005 17.3013 36.3032 17.328 36.5059 17.328C37.0179 17.328 37.4392 17.2533 37.7699 17.104C38.1005 16.9547 38.3619 16.7627 38.5539 16.528C38.7565 16.2827 38.8952 16.0107 38.9699 15.712C39.0445 15.4027 39.0819 15.0933 39.0819 14.784V14.288H38.0259ZM42.4988 12.688C42.4988 12.5493 42.4934 12.384 42.4828 12.192C42.4721 11.9893 42.4614 11.7867 42.4508 11.584C42.4508 11.3813 42.4454 11.1947 42.4348 11.024C42.4241 10.8427 42.4188 10.704 42.4188 10.608H43.3788C43.3894 10.8853 43.3948 11.152 43.3948 11.408C43.4054 11.664 43.4214 11.8293 43.4428 11.904C43.6881 11.4667 44.0028 11.1093 44.3868 10.832C44.7708 10.5547 45.2401 10.416 45.7948 10.416C45.8908 10.416 45.9814 10.4267 46.0668 10.448C46.1628 10.4587 46.2588 10.4747 46.3548 10.496L46.2428 11.44C46.1148 11.3973 45.9921 11.376 45.8748 11.376C45.4588 11.376 45.0961 11.4453 44.7868 11.584C44.4881 11.712 44.2374 11.8933 44.0348 12.128C43.8428 12.3627 43.6988 12.64 43.6028 12.96C43.5068 13.2693 43.4588 13.6053 43.4588 13.968V18H42.4988V12.688ZM47.9869 5.904H48.9469V18H47.9869V5.904ZM57.4146 14.896C57.4146 15.2587 57.4146 15.584 57.4146 15.872C57.4253 16.16 57.436 16.4267 57.4466 16.672C57.4573 16.9173 57.468 17.1467 57.4786 17.36C57.5 17.5733 57.5266 17.7867 57.5586 18H56.6626C56.5986 17.6373 56.5666 17.2373 56.5666 16.8H56.5346C56.2573 17.28 55.9106 17.632 55.4946 17.856C55.0893 18.08 54.572 18.192 53.9426 18.192C53.6226 18.192 53.308 18.1493 52.9986 18.064C52.6893 17.9893 52.412 17.8667 52.1666 17.696C51.9213 17.5147 51.7186 17.2853 51.5586 17.008C51.4093 16.7307 51.3346 16.3947 51.3346 16C51.3346 15.4347 51.4786 14.9867 51.7666 14.656C52.0546 14.3253 52.4066 14.08 52.8226 13.92C53.2493 13.7493 53.6973 13.6427 54.1666 13.6C54.6466 13.5467 55.068 13.52 55.4306 13.52H56.5506V13.072C56.5506 12.432 56.3533 11.9733 55.9586 11.696C55.564 11.4187 55.068 11.28 54.4706 11.28C53.6173 11.28 52.8653 11.5573 52.2146 12.112L51.6546 11.456C52.0066 11.1147 52.444 10.8587 52.9666 10.688C53.4893 10.5067 53.9906 10.416 54.4706 10.416C55.3666 10.416 56.0813 10.6293 56.6146 11.056C57.148 11.472 57.4146 12.1493 57.4146 13.088V14.896ZM55.4946 14.288C55.0893 14.288 54.6946 14.3147 54.3106 14.368C53.9373 14.4213 53.596 14.512 53.2866 14.64C52.988 14.768 52.748 14.9387 52.5666 15.152C52.3853 15.3653 52.2946 15.632 52.2946 15.952C52.2946 16.176 52.3426 16.3787 52.4386 16.56C52.5453 16.7307 52.6786 16.8747 52.8386 16.992C52.9986 17.0987 53.1746 17.184 53.3666 17.248C53.5693 17.3013 53.772 17.328 53.9746 17.328C54.4866 17.328 54.908 17.2533 55.2386 17.104C55.5693 16.9547 55.8306 16.7627 56.0226 16.528C56.2253 16.2827 56.364 16.0107 56.4386 15.712C56.5133 15.4027 56.5506 15.0933 56.5506 14.784V14.288H55.4946ZM59.7595 5.904H60.7195V11.904H60.7515C60.9008 11.648 61.0875 11.4293 61.3115 11.248C61.5355 11.056 61.7755 10.9013 62.0315 10.784C62.2982 10.656 62.5755 10.5653 62.8635 10.512C63.1515 10.448 63.4342 10.416 63.7115 10.416C64.2768 10.416 64.7942 10.512 65.2635 10.704C65.7435 10.896 66.1542 11.168 66.4955 11.52C66.8475 11.8613 67.1195 12.272 67.3115 12.752C67.5035 13.2213 67.5995 13.7387 67.5995 14.304C67.5995 14.8693 67.5035 15.392 67.3115 15.872C67.1195 16.3413 66.8475 16.752 66.4955 17.104C66.1542 17.4453 65.7435 17.712 65.2635 17.904C64.7942 18.096 64.2768 18.192 63.7115 18.192C63.4342 18.192 63.1515 18.16 62.8635 18.096C62.5755 18.0427 62.2982 17.9573 62.0315 17.84C61.7755 17.712 61.5355 17.5573 61.3115 17.376C61.0875 17.184 60.9008 16.96 60.7515 16.704H60.7195V18H59.7595V5.904ZM60.6235 14.304C60.6235 14.72 60.7035 15.1147 60.8635 15.488C61.0235 15.8507 61.2422 16.1707 61.5195 16.448C61.7968 16.7147 62.1222 16.928 62.4955 17.088C62.8688 17.248 63.2742 17.328 63.7115 17.328C64.1595 17.328 64.5648 17.248 64.9275 17.088C65.2902 16.928 65.5995 16.7147 65.8555 16.448C66.1115 16.1707 66.3035 15.8507 66.4315 15.488C66.5702 15.1147 66.6395 14.72 66.6395 14.304C66.6395 13.888 66.5702 13.4987 66.4315 13.136C66.3035 12.7627 66.1115 12.4427 65.8555 12.176C65.5995 11.8987 65.2902 11.68 64.9275 11.52C64.5648 11.36 64.1595 11.28 63.7115 11.28C63.2742 11.28 62.8688 11.36 62.4955 11.52C62.1222 11.68 61.7968 11.8987 61.5195 12.176C61.2422 12.4427 61.0235 12.7627 60.8635 13.136C60.7035 13.4987 60.6235 13.888 60.6235 14.304ZM76.2768 16.608C75.9034 17.1733 75.4394 17.5787 74.8848 17.824C74.3408 18.0693 73.7381 18.192 73.0768 18.192C72.5114 18.192 71.9994 18.096 71.5408 17.904C71.0821 17.712 70.6874 17.4453 70.3568 17.104C70.0261 16.752 69.7701 16.3413 69.5888 15.872C69.4181 15.392 69.3328 14.864 69.3328 14.288C69.3328 13.7333 69.4234 13.2213 69.6048 12.752C69.7861 12.2827 70.0421 11.8773 70.3728 11.536C70.7034 11.184 71.0928 10.912 71.5408 10.72C71.9888 10.5173 72.4848 10.416 73.0288 10.416C73.5941 10.416 74.0901 10.5173 74.5168 10.72C74.9541 10.912 75.3168 11.1733 75.6048 11.504C75.9034 11.824 76.1274 12.192 76.2768 12.608C76.4261 13.024 76.5008 13.4453 76.5008 13.872V14.544H70.2928C70.2928 14.7467 70.3301 15.008 70.4048 15.328C70.4901 15.6373 70.6394 15.9413 70.8528 16.24C71.0661 16.5387 71.3488 16.7947 71.7008 17.008C72.0634 17.2213 72.5274 17.328 73.0928 17.328C73.5834 17.328 74.0581 17.2107 74.5168 16.976C74.9754 16.7413 75.3274 16.4213 75.5728 16.016L76.2768 16.608ZM75.5408 13.68C75.5408 13.3493 75.4714 13.04 75.3328 12.752C75.2048 12.464 75.0234 12.2133 74.7888 12C74.5648 11.776 74.2928 11.6 73.9728 11.472C73.6634 11.344 73.3328 11.28 72.9808 11.28C72.4581 11.28 72.0208 11.3867 71.6688 11.6C71.3274 11.8133 71.0554 12.0587 70.8528 12.336C70.6501 12.6133 70.5061 12.8853 70.4208 13.152C70.3354 13.408 70.2928 13.584 70.2928 13.68H75.5408ZM84.3834 14.896C84.3834 15.2587 84.3834 15.584 84.3834 15.872C84.394 16.16 84.4047 16.4267 84.4154 16.672C84.426 16.9173 84.4367 17.1467 84.4474 17.36C84.4687 17.5733 84.4954 17.7867 84.5274 18H83.6314C83.5674 17.6373 83.5354 17.2373 83.5354 16.8H83.5034C83.226 17.28 82.8794 17.632 82.4634 17.856C82.058 18.08 81.5407 18.192 80.9114 18.192C80.5914 18.192 80.2767 18.1493 79.9674 18.064C79.658 17.9893 79.3807 17.8667 79.1354 17.696C78.89 17.5147 78.6874 17.2853 78.5274 17.008C78.378 16.7307 78.3034 16.3947 78.3034 16C78.3034 15.4347 78.4474 14.9867 78.7354 14.656C79.0234 14.3253 79.3754 14.08 79.7914 13.92C80.218 13.7493 80.666 13.6427 81.1354 13.6C81.6154 13.5467 82.0367 13.52 82.3994 13.52H83.5194V13.072C83.5194 12.432 83.322 11.9733 82.9274 11.696C82.5327 11.4187 82.0367 11.28 81.4394 11.28C80.586 11.28 79.834 11.5573 79.1834 12.112L78.6234 11.456C78.9754 11.1147 79.4127 10.8587 79.9354 10.688C80.458 10.5067 80.9594 10.416 81.4394 10.416C82.3354 10.416 83.05 10.6293 83.5834 11.056C84.1167 11.472 84.3834 12.1493 84.3834 13.088V14.896ZM82.4634 14.288C82.058 14.288 81.6634 14.3147 81.2794 14.368C80.906 14.4213 80.5647 14.512 80.2554 14.64C79.9567 14.768 79.7167 14.9387 79.5354 15.152C79.354 15.3653 79.2634 15.632 79.2634 15.952C79.2634 16.176 79.3114 16.3787 79.4074 16.56C79.514 16.7307 79.6474 16.8747 79.8074 16.992C79.9674 17.0987 80.1434 17.184 80.3354 17.248C80.538 17.3013 80.7407 17.328 80.9434 17.328C81.4554 17.328 81.8767 17.2533 82.2074 17.104C82.538 16.9547 82.7994 16.7627 82.9914 16.528C83.194 16.2827 83.3327 16.0107 83.4074 15.712C83.482 15.4027 83.5194 15.0933 83.5194 14.784V14.288H82.4634ZM90.5523 11.472H88.4403V16.288C88.4403 16.6187 88.5309 16.8747 88.7123 17.056C88.8936 17.2373 89.1443 17.328 89.4643 17.328C89.6456 17.328 89.8269 17.3067 90.0083 17.264C90.2003 17.2107 90.3816 17.1467 90.5523 17.072L90.6323 17.936C90.4509 18 90.2429 18.0587 90.0083 18.112C89.7736 18.1653 89.5656 18.192 89.3843 18.192C89.0429 18.192 88.7496 18.1387 88.5043 18.032C88.2589 17.936 88.0616 17.8027 87.9123 17.632C87.7629 17.4613 87.6509 17.264 87.5763 17.04C87.5123 16.8053 87.4803 16.5547 87.4803 16.288V11.472H85.8803V10.608H87.4803V8.48H88.4403V10.608H90.5523V11.472ZM92.2644 12.688C92.2644 12.5493 92.259 12.384 92.2484 12.192C92.2377 11.9893 92.227 11.7867 92.2164 11.584C92.2164 11.3813 92.211 11.1947 92.2004 11.024C92.1897 10.8427 92.1844 10.704 92.1844 10.608H93.1444C93.155 10.8853 93.1604 11.152 93.1604 11.408C93.171 11.664 93.187 11.8293 93.2084 11.904C93.4537 11.4667 93.7684 11.1093 94.1524 10.832C94.5364 10.5547 95.0057 10.416 95.5604 10.416C95.6564 10.416 95.747 10.4267 95.8324 10.448C95.9284 10.4587 96.0244 10.4747 96.1204 10.496L96.0084 11.44C95.8804 11.3973 95.7577 11.376 95.6404 11.376C95.2244 11.376 94.8617 11.4453 94.5524 11.584C94.2537 11.712 94.003 11.8933 93.8004 12.128C93.6084 12.3627 93.4644 12.64 93.3684 12.96C93.2724 13.2693 93.2244 13.6053 93.2244 13.968V18H92.2644V12.688ZM97.7525 10.608H98.7125V18H97.7525V10.608ZM97.5125 7.68C97.5125 7.47733 97.5818 7.30667 97.7205 7.168C97.8592 7.02933 98.0298 6.96 98.2325 6.96C98.4352 6.96 98.6058 7.02933 98.7445 7.168C98.8832 7.30667 98.9525 7.47733 98.9525 7.68C98.9525 7.88267 98.8832 8.05333 98.7445 8.192C98.6058 8.33067 98.4352 8.4 98.2325 8.4C98.0298 8.4 97.8592 8.33067 97.7205 8.192C97.5818 8.05333 97.5125 7.88267 97.5125 7.68ZM100.588 17.424L105.02 11.472H100.812V10.608H106.348V11.184L101.932 17.136H106.54V18H100.588V17.424ZM108.265 16.112C108.467 16.5067 108.766 16.8107 109.161 17.024C109.555 17.2267 109.971 17.328 110.409 17.328C110.611 17.328 110.814 17.296 111.017 17.232C111.219 17.168 111.401 17.0773 111.561 16.96C111.721 16.8427 111.849 16.704 111.945 16.544C112.051 16.3733 112.105 16.1813 112.105 15.968C112.105 15.6267 111.993 15.3707 111.769 15.2C111.555 15.0293 111.289 14.896 110.969 14.8C110.649 14.704 110.297 14.624 109.913 14.56C109.529 14.4853 109.177 14.3787 108.857 14.24C108.537 14.0907 108.265 13.888 108.041 13.632C107.827 13.376 107.721 13.0133 107.721 12.544C107.721 12.1813 107.795 11.8667 107.945 11.6C108.094 11.3333 108.286 11.1147 108.521 10.944C108.766 10.7627 109.038 10.6293 109.337 10.544C109.635 10.4587 109.939 10.416 110.249 10.416C110.857 10.416 111.379 10.528 111.817 10.752C112.265 10.976 112.611 11.328 112.857 11.808L111.993 12.32C111.811 11.9787 111.582 11.7227 111.305 11.552C111.038 11.3707 110.686 11.28 110.249 11.28C110.078 11.28 109.897 11.3067 109.705 11.36C109.523 11.4133 109.358 11.488 109.209 11.584C109.059 11.68 108.931 11.8027 108.825 11.952C108.729 12.1013 108.681 12.272 108.681 12.464C108.681 12.7947 108.787 13.04 109.001 13.2C109.225 13.36 109.497 13.488 109.817 13.584C110.137 13.6693 110.489 13.744 110.873 13.808C111.257 13.872 111.609 13.9787 111.929 14.128C112.249 14.2667 112.515 14.4747 112.729 14.752C112.953 15.0187 113.065 15.4027 113.065 15.904C113.065 16.288 112.99 16.624 112.841 16.912C112.702 17.1893 112.505 17.424 112.249 17.616C112.003 17.808 111.721 17.952 111.401 18.048C111.081 18.144 110.745 18.192 110.393 18.192C109.753 18.192 109.166 18.0693 108.633 17.824C108.11 17.5787 107.705 17.2 107.417 16.688L108.265 16.112ZM113.781 19.2H121.781V20H113.781V19.2Z" fill="#F8F6F4"/>
</svg>
